# xmcd CD database file
#
# Track frame offsets:
#	150
#	24377
#	42015
#	63467
#	85316
#	107192
#	129702
#	146678
#	169246
#	198624
#	219549
#	240628
#	266305
#	289739
#	315906
#
# Disc length: 4577 seconds
#
# Revision: 2
# Processed by: cddbd v1.5.2PL0 Copyright (c) Steve Scherf et al.
# Submitted via: CDex 1.79
#
DISCID=da11df0f
DTITLE=Robert Harris - Pompeii CD 3
DYEAR=2004
DGENRE=Audiobook
TTITLE0=Pompeii 32
TTITLE1=Pompeii 33
TTITLE2=Pompeii 34
TTITLE3=Pompeii 35
TTITLE4=Pompeii 36
TTITLE5=Pompeii 37
TTITLE6=Pompeii 38
TTITLE7=Pompeii 39
TTITLE8=Pompeii 40
TTITLE9=Pompeii 41
TTITLE10=Pompeii 42
TTITLE11=Pompeii 43
TTITLE12=Pompeii 44
TTITLE13=Pompeii 45
TTITLE14=Pompeii 46
EXTD=YEAR: 2004
EXTT0=
EXTT1=
EXTT2=
EXTT3=
EXTT4=
EXTT5=
EXTT6=
EXTT7=
EXTT8=
EXTT9=
EXTT10=
EXTT11=
EXTT12=
EXTT13=
EXTT14=
PLAYORDER=
